<?xml version="1.0" encoding="utf-8"?>
<!-- Generator: Adobe Illustrator 16.0.4, SVG Export Plug-In . SVG Version: 6.00 Build 0)  -->
<!DOCTYPE svg PUBLIC "-//W3C//DTD SVG 1.1//EN" "http://www.w3.org/Graphics/SVG/1.1/DTD/svg11.dtd">
<svg version="1.1" id="Layer_1" xmlns="http://www.w3.org/2000/svg" xmlns:xlink="http://www.w3.org/1999/xlink" x="0px" y="0px"
	 width="768px" height="1024px" viewBox="0 0 768 1024" enable-background="new 0 0 768 1024" xml:space="preserve">
<path fill="none" stroke="#000000" stroke-miterlimit="10" d="M646.539,112.021c-1.188,61.384,60.457,116.004,73.465,176.394
	c27.544,127.875-15.313,254.95-14.85,382.796c0.319,88.214-35.14,127.549-114.772,197.18
	c-85.497,74.761-154.967,85.671-286.407,75.21c-106.901-8.509-167.108-84.636-209.062-159.107
	C40.83,688.49,0.604,572.28,49.339,471.223c39.835-82.604,103.383-168.669,174.863-237.077
	c59.216-56.669,177.922-139.07,273.227-152.045c50.18-6.832,52.207,3.248,70.51,37.675c27.041,50.864,61.858,98.925,87.758,150.286
	c42.897,85.068,92.808,176.758,95.286,269.599c2.597,97.319-44.773,218.164-96.251,306.841
	c-17.589,30.298-42.282,74.052-76.442,94.381c-75.368,44.854-250.278,28.782-335.583,22.665
	C123.5,955,88.853,846.298,73.226,767.098C51.502,657.011,18.613,512.011,56.812,401.669
	c33.346-96.321,89.942-180.461,168.833-257.678C273.472,97.182,316.867,48.5,392.21,31.478c22.704-5.13,94.396-21.641,116.325-9.95
	c38.295,20.413,36.578,114.542,46.407,147.61c6.146,20.68,12.042,35.84,13.468,57.488c9.771,148.425-59.53,302.449-67.592,451.517
	c-2.655,49.104-9.321,99.626-25.064,148.04c-16.67,51.266-54.571,158.961-111.47,186.624
	c-16.075-70.252-8.09-141.294-27.456-212.318c-31.799-116.618-61.58-230.425-61.404-349.754
	c0.075-50.913,15.619-243.363-63.48-258.551"/>
</svg>
